<?xml version="1.0" encoding="utf-8"?>
<!-- Generated by IcoMoon.io -->
<!DOCTYPE svg PUBLIC "-//W3C//DTD SVG 1.1//EN" "http://www.w3.org/Graphics/SVG/1.1/DTD/svg11.dtd">
<svg version="1.1" xmlns="http://www.w3.org/2000/svg" xmlns:xlink="http://www.w3.org/1999/xlink" width="512" height="512" viewBox="0 0 512 512">
    <g class="primary">
        <path class="primary" d="M444.84 83.16c-46.804-51.108-114.077-83.16-188.84-83.16-141.385 0-256 114.615-256 256h48c0-114.875 93.125-208 208-208 61.51 0 116.771 26.709 154.848 69.153l-74.848 74.847h176v-176l-67.16 67.16z"></path>
        <path d="M464 256c0 114.875-93.125 208-208 208-61.51 0-116.771-26.709-154.847-69.153l74.847-74.847h-176v176l67.16-67.16c46.804 51.108 114.077 83.16 188.84 83.16 141.385 0 256-114.615 256-256h-48z"></path>
    </g>
</svg>
